<?xml version="1.0" encoding="utf-8"?>
<!-- Generator: Adobe Illustrator 21.0.0, SVG Export Plug-In . SVG Version: 6.00 Build 0)  -->
<svg version="1.1" id="Layer_1" xmlns="http://www.w3.org/2000/svg" xmlns:xlink="http://www.w3.org/1999/xlink" x="0px" y="0px"
	 viewBox="0 0 512 512" style="enable-background:new 0 0 512 512;" xml:space="preserve">
<style type="text/css">
	.st0{fill:#71CCE0;}
	.st1{fill:#DFDFDF;}
	.st2{fill:#4A555F;}
	.st3{fill:#FFD452;}
	.st4{fill:#F58E6F;}
	.st5{fill:#FFFFFF;}
	.st6{fill:none;}
</style>
<g>
	<g>
		<g>
			<path class="st1" d="M278.593,150.049h-46.375c-28.281,0-51.653,21.464-54.555,49.024c0,0.019,0,0.019,0,0.019
				c16.711,21.795,42.363,36.364,71.481,38.194c2.065,0.156,4.168,0.215,6.272,0.215c1.013,0,2.045-0.02,3.058-0.059
				c13.147-0.39,25.651-3.389,37.006-8.492c0.117-0.039,0.214-0.098,0.331-0.156c17.354-8.609,29.819-21.074,37.318-30.111
				C330.032,171.337,306.718,150.049,278.593,150.049z"/>
		</g>
	</g>
	<g>
		<g>
			<g>
				<path class="st2" d="M283.907,69.37c-8.097-8.098-18.865-12.557-30.317-12.556c-23.641,0.002-42.874,19.236-42.874,42.877
					c0,11.452,4.459,22.218,12.557,30.316c8.098,8.097,18.865,12.556,30.317,12.556c23.641-0.001,42.874-19.236,42.874-42.876
					C296.465,88.234,292.004,77.467,283.907,69.37z M253.591,136.719c-9.892,0-19.191-3.851-26.185-10.844
					c-6.995-6.994-10.847-16.293-10.847-26.184c0-20.418,16.613-37.032,37.031-37.034c9.891,0,19.192,3.851,26.186,10.845
					c6.994,6.994,10.846,16.292,10.846,26.184C290.622,120.106,274.009,136.718,253.591,136.719z"/>
			</g>
		</g>
	</g>
	<g>
		<g>
			<path class="st3" d="M274.483,78.795c-5.58-5.58-12.999-8.653-20.89-8.653c-16.292,0.001-29.547,13.256-29.547,29.548
				c0,7.892,3.073,15.312,8.654,20.891c5.579,5.58,13,8.653,20.891,8.652c16.293-0.001,29.546-13.256,29.546-29.548
				C283.136,91.794,280.063,84.375,274.483,78.795z"/>
		</g>
	</g>
	<g>
		<g>
			<polygon class="st4" points="241.135,139.641 248.868,157.899 259.16,157.899 266.753,139.641 			"/>
		</g>
	</g>
	<g>
		<g>
			<path class="st4" d="M259.175,157.898h-10.304l-11.959,62.716l12.231,16.672c2.065,0.156,4.168,0.215,6.272,0.215
				c1.013,0,2.045-0.02,3.058-0.059l11.823-16.614C266.79,199.228,259.175,157.898,259.175,157.898z"/>
		</g>
	</g>
	<g>
		<g>
			<g>
				<path class="st2" d="M236.725,136.719l10.206,24.102h14.178l10.022-24.102H236.725z M257.21,154.978h-6.406l-5.259-12.416
					h16.829L257.21,154.978z"/>
			</g>
		</g>
	</g>
	<g>
		<g>
			<g>
				<path class="st2" d="M273.18,220.36c-3.471-21.383-11.055-62.579-11.131-62.992l-0.441-2.392h-15.154l-12.65,66.341
					l13.779,18.781l1.339,0.101c1.988,0.15,4.112,0.223,6.492,0.223c1.052,0,2.123-0.021,3.171-0.061l1.436-0.055l13.35-18.762
					L273.18,220.36z M256.934,234.564c-2.225,0.044-4.35,0-6.241-0.105l-10.673-14.548l11.269-59.092h5.451
					c1.638,8.935,7.441,40.749,10.478,59.294L256.934,234.564z"/>
			</g>
		</g>
	</g>
	<g>
		<g>
			<g>
				<path class="st2" d="M344.113,185.786c-8.46-28.886-35.403-49.06-65.52-49.06h-46.375c-30.105,0-57.04,20.174-65.5,49.06
					l-0.341,1.165l0.584,1.063c2.29,4.168,4.905,8.216,7.78,12.042l0.603,0.813c17.768,23.172,44.599,37.509,73.579,39.33
					c1.988,0.15,4.112,0.223,6.492,0.223c1.052,0,2.123-0.021,3.144-0.06c13.219-0.392,26.013-3.321,38.03-8.708
					c0.175-0.068,0.341-0.148,0.521-0.243c17.786-8.823,30.627-21.653,38.275-30.872c1.329-1.616,2.63-3.279,3.943-5.052
					c1.544-2.287,3.03-4.73,4.54-7.469l0.588-1.065L344.113,185.786z M334.561,192.11c-1.179,1.589-2.421,3.176-3.68,4.708
					c-7.281,8.774-19.5,20.991-36.369,29.359l-0.23,0.108c-11.338,5.096-23.416,7.867-35.92,8.237
					c-0.976,0.038-1.97,0.057-2.946,0.057c-2.231,0-4.211-0.068-6.089-0.209c-27.003-1.698-52.002-14.905-68.742-36.278
					l-0.604-0.798c-2.685-3.5-5.138-7.204-7.302-11.026c8.109-25.791,32.417-43.699,59.54-43.699h46.375
					c27.135,0,51.451,17.907,59.561,43.698C336.935,188.419,335.739,190.362,334.561,192.11z"/>
			</g>
		</g>
	</g>
	<g>
		<g>
			<g>
				<path class="st2" d="M255.415,38.854c-55.577,0-100.793,45.216-100.793,100.794c0,16.897,4.266,33.621,12.339,48.366
					c2.29,4.168,4.905,8.216,7.78,12.042l0.603,0.813c17.768,23.172,44.599,37.509,73.579,39.33c1.988,0.15,4.112,0.223,6.492,0.223
					c1.052,0,2.123-0.021,3.144-0.06c13.219-0.392,26.013-3.321,38.03-8.708c0.175-0.068,0.341-0.147,0.521-0.243
					c17.786-8.823,30.627-21.653,38.275-30.872c1.329-1.616,2.63-3.279,3.943-5.052c1.544-2.287,3.03-4.73,4.544-7.477
					c8.07-14.741,12.337-31.465,12.337-48.363C356.208,84.069,310.993,38.854,255.415,38.854z M338.751,185.196
					c-1.425,2.584-2.821,4.881-4.19,6.914c-1.179,1.589-2.421,3.176-3.68,4.708c-7.281,8.774-19.5,20.991-36.369,29.359l-0.23,0.108
					c-11.338,5.096-23.416,7.867-35.92,8.237c-0.976,0.038-1.97,0.057-2.946,0.057c-2.231,0-4.211-0.068-6.089-0.209
					c-27.003-1.698-52.002-14.905-68.742-36.278l-0.604-0.798c-2.934-3.825-5.591-7.894-7.895-12.089
					c-7.602-13.885-11.62-29.638-11.62-45.557c0-52.356,42.595-94.951,94.95-94.951c52.356,0,94.951,42.595,94.951,94.951
					C350.365,155.568,346.348,171.321,338.751,185.196z"/>
			</g>
		</g>
	</g>
	<g>
		<g>
			<g>
				<path class="st2" d="M135.225,139.64c-0.001-1.393,0.023-2.78,0.07-4.162l-5.839-0.2c-0.05,1.448-0.075,2.904-0.074,4.363
					c0,0.539,0.003,1.078,0.01,1.616l5.843-0.074C135.228,140.67,135.225,140.156,135.225,139.64z M135.44,146.885l-5.834,0.346
					c0.118,1.986,0.285,3.991,0.496,5.961l5.811-0.622C135.711,150.692,135.552,148.778,135.44,146.885z M136.654,158.229
					l-5.775,0.896c0.303,1.957,0.66,3.939,1.059,5.889l5.725-1.172C137.283,161.983,136.943,160.095,136.654,158.229z
					 M136.218,124.113l-5.795-0.748c-0.254,1.966-0.463,3.967-0.624,5.947l5.824,0.472
					C135.775,127.896,135.975,125.989,136.218,124.113z M138.212,112.888l-5.698-1.295c-0.436,1.918-0.835,3.89-1.186,5.858
					l5.752,1.027C137.415,116.598,137.795,114.718,138.212,112.888z M158.276,210.427l-4.719,3.445
					c1.164,1.595,2.389,3.192,3.64,4.746l4.552-3.663C160.554,213.471,159.386,211.948,158.276,210.427z M138.938,169.401
					l-5.662,1.442c0.492,1.93,1.035,3.869,1.616,5.762l5.586-1.714C139.924,173.087,139.406,171.241,138.938,169.401z
					 M141.267,101.907l-5.548-1.833c-0.623,1.884-1.208,3.809-1.74,5.722l5.63,1.565
					C140.115,105.538,140.673,103.702,141.267,101.907z M161.056,223.185c1.318,1.489,2.688,2.963,4.069,4.382l4.187-4.078
					c-1.318-1.352-2.625-2.759-3.882-4.179L161.056,223.185z M146.644,190.836l-5.284,2.494c0.843,1.786,1.743,3.585,2.678,5.347
					l5.162-2.739C148.308,194.257,147.448,192.541,146.644,190.836z M151.994,200.907l-5.023,2.984
					c1.018,1.715,2.086,3.42,3.174,5.069l4.877-3.22C153.985,204.169,152.966,202.543,151.994,200.907z M145.351,91.278
					l-5.349-2.353c-0.793,1.803-1.558,3.659-2.272,5.515l5.453,2.098C143.865,94.769,144.594,92.999,145.351,91.278z
					 M371.581,108.712l5.649-1.497c-0.512-1.926-1.073-3.859-1.672-5.744l-5.569,1.769
					C370.559,105.036,371.096,106.877,371.581,108.712z M368.129,97.835l5.478-2.033c-0.688-1.856-1.436-3.729-2.218-5.565
					l-5.375,2.288C366.759,94.279,367.47,96.066,368.129,97.835z M363.649,87.33l5.257-2.549c-0.865-1.785-1.786-3.577-2.737-5.324
					l-5.132,2.792C361.945,83.916,362.824,85.626,363.649,87.33z M358.188,77.302l4.991-3.036c-1.037-1.705-2.123-3.401-3.23-5.04
					l-4.843,3.27C356.163,74.059,357.199,75.676,358.188,77.302z M375.307,131.181l5.828-0.403
					c-0.137-1.992-0.323-3.994-0.555-5.955l-5.801,0.683C374.997,127.374,375.176,129.283,375.307,131.181z M373.977,119.857
					l5.763-0.955c-0.327-1.978-0.704-3.955-1.117-5.875l-5.714,1.23C373.306,116.089,373.664,117.973,373.977,119.857z
					 M163.358,62.365l-4.474-3.759c-1.276,1.519-2.534,3.088-3.736,4.665l4.645,3.543C160.94,65.311,162.14,63.814,163.358,62.365z
					 M156.446,71.427l-4.808-3.321c-1.129,1.636-2.232,3.315-3.277,4.993l4.959,3.091C154.317,74.589,155.368,72.986,156.446,71.427
					z M351.803,67.842l4.683-3.494c-1.183-1.587-2.425-3.171-3.688-4.708l-4.516,3.709
					C349.488,64.817,350.673,66.328,351.803,67.842z M150.425,81.093l-5.101-2.851c-0.964,1.727-1.903,3.504-2.788,5.279
					l5.229,2.606C148.609,84.433,149.504,82.739,150.425,81.093z M348.889,55.111c-1.322-1.461-2.705-2.92-4.112-4.338l-4.146,4.118
					c1.345,1.353,2.665,2.746,3.926,4.14L348.889,55.111z M162.837,54.123l4.291,3.966c1.288-1.393,2.623-2.771,3.969-4.096
					l-4.099-4.164C165.587,51.217,164.187,52.662,162.837,54.123z M142.279,180.303l-5.499,1.978c0.674,1.873,1.4,3.75,2.159,5.58
					l5.398-2.239C143.613,183.878,142.92,182.088,142.279,180.303z M360.965,197.158l5.128,2.8c0.949-1.74,1.872-3.528,2.741-5.316
					l-5.257-2.552C362.75,193.794,361.871,195.5,360.965,197.158z M348.201,216.027l4.508,3.717
					c1.271-1.541,2.515-3.123,3.696-4.704l-4.683-3.498C350.597,213.05,349.412,214.558,348.201,216.027z M355.029,206.895
					l4.839,3.273c1.124-1.661,2.212-3.355,3.233-5.034l-4.991-3.038C357.136,203.695,356.1,205.31,355.029,206.895z
					 M340.537,224.477l4.139,4.125c1.406-1.409,2.792-2.868,4.12-4.336l-4.329-3.922C343.2,221.743,341.878,223.133,340.537,224.477
					z M332.22,47.196c1.451,1.208,2.897,2.47,4.297,3.75l3.945-4.312c-1.466-1.341-2.982-2.663-4.502-3.929L332.22,47.196z
					 M323.122,40.331c1.565,1.069,3.121,2.188,4.63,3.326l3.519-4.664c-1.579-1.193-3.211-2.365-4.85-3.486L323.122,40.331z
					 M374.753,153.961l5.801,0.688c0.236-1.989,0.426-3.991,0.563-5.954l-5.828-0.409
					C375.158,150.156,374.978,152.066,374.753,153.961z M381.409,136.749l-5.843,0.129c0.021,0.92,0.032,1.84,0.032,2.764
					c0,0.984-0.011,1.964-0.036,2.942l5.843,0.145c0.025-1.025,0.036-2.054,0.036-3.086
					C381.441,138.675,381.43,137.71,381.409,136.749z M365.949,186.902l5.371,2.298c0.789-1.846,1.539-3.715,2.224-5.555
					l-5.478-2.037C367.415,183.36,366.702,185.141,365.949,186.902z M313.429,34.359c1.657,0.916,3.312,1.881,4.917,2.87
					l3.066-4.974c-1.683-1.037-3.42-2.05-5.156-3.011L313.429,34.359z M171.354,45.737l3.9,4.351c1.4-1.255,2.859-2.501,4.339-3.706
					l-3.69-4.531C174.353,43.114,172.823,44.421,171.354,45.737z M369.932,176.22l5.565,1.775c0.605-1.897,1.172-3.829,1.681-5.74
					l-5.645-1.506C371.046,172.569,370.508,174.411,369.932,176.22z M372.874,165.205l5.71,1.236
					c0.422-1.944,0.801-3.921,1.126-5.875l-5.763-0.96C373.637,161.468,373.276,163.352,372.874,165.205z M212.172,21.227
					l2.007,5.487c1.773-0.648,3.594-1.264,5.414-1.832l-1.74-5.579C215.944,19.9,214.033,20.546,212.172,21.227z M235.307,15.208
					l0.926,5.769c1.858-0.298,3.759-0.556,5.649-0.768l-0.651-5.807C239.25,14.624,237.257,14.895,235.307,15.208z M223.603,17.661
					l1.47,5.655c1.834-0.477,3.7-0.915,5.55-1.302l-1.196-5.719C227.485,16.701,225.526,17.161,223.603,17.661z M201.129,25.869
					l2.52,5.272c1.7-0.813,3.453-1.601,5.212-2.34l-2.266-5.386C204.75,24.192,202.912,25.017,201.129,25.869z M190.585,31.542
					l3.009,5.008c1.624-0.975,3.293-1.925,4.964-2.824l-2.769-5.145C194.037,29.523,192.286,30.52,190.585,31.542z M180.631,38.186
					l3.471,4.7c1.524-1.124,3.095-2.229,4.671-3.28l-3.245-4.86C183.875,35.849,182.228,37.006,180.631,38.186z M303.213,29.337
					c1.733,0.751,3.471,1.556,5.166,2.39l2.579-5.244c-1.778-0.874-3.601-1.718-5.417-2.506L303.213,29.337z M281.57,22.31
					c1.843,0.409,3.705,0.869,5.535,1.369l1.537-5.638c-1.919-0.523-3.873-1.006-5.805-1.435L281.57,22.31z M247.186,13.876
					l0.377,5.832c1.883-0.122,3.798-0.201,5.697-0.233l-0.103-5.843C251.169,13.667,249.161,13.749,247.186,13.876z M292.568,25.308
					c1.805,0.588,3.614,1.223,5.377,1.891l2.069-5.465c-1.849-0.7-3.747-1.367-5.64-1.982L292.568,25.308z M258.966,19.507
					c1.887,0.054,3.804,0.154,5.695,0.299l0.445-5.826c-1.984-0.151-3.992-0.257-5.972-0.314L258.966,19.507z M270.338,20.373
					c1.881,0.233,3.779,0.515,5.64,0.834l0.993-5.758c-1.952-0.337-3.941-0.631-5.914-0.876L270.338,20.373z"/>
			</g>
		</g>
	</g>
	<g>
		<g>
			<path class="st1" d="M148.722,382.931h-46.375c-28.281,0-51.653,21.464-54.555,49.023c0,0.02,0,0.02,0,0.02
				c16.711,21.794,42.363,36.363,71.481,38.194c2.065,0.156,4.168,0.214,6.272,0.214c1.013,0,2.045-0.019,3.058-0.058
				c13.147-0.39,25.651-3.389,37.006-8.492c0.117-0.039,0.214-0.098,0.331-0.156c17.354-8.609,29.819-21.074,37.318-30.112
				C200.161,404.22,176.847,382.931,148.722,382.931z"/>
		</g>
	</g>
	<g>
		<g>
			<g>
				<path class="st2" d="M154.037,302.253c-8.098-8.097-18.862-12.555-30.313-12.555c-0.001,0-0.003,0-0.004,0
					c-23.641,0.001-42.874,19.235-42.874,42.876c0,11.452,4.459,22.218,12.557,30.316c8.098,8.097,18.865,12.557,30.317,12.556
					c23.641-0.001,42.874-19.236,42.874-42.876C166.594,321.117,162.135,310.35,154.037,302.253z M123.72,369.602
					c-9.892,0-19.191-3.851-26.185-10.844c-6.995-6.994-10.847-16.293-10.847-26.184c0-20.419,16.613-37.032,37.031-37.033
					c0.002,0,0.002,0,0.004,0c9.89,0,19.188,3.852,26.182,10.845c6.994,6.994,10.845,16.292,10.845,26.184
					C160.751,352.989,144.139,369.601,123.72,369.602z"/>
			</g>
		</g>
	</g>
	<g>
		<g>
			<path class="st3" d="M144.612,311.678c-5.579-5.58-12.999-8.653-20.89-8.652c-16.292,0.001-29.547,13.256-29.547,29.548
				c0,7.892,3.073,15.311,8.654,20.891c5.58,5.58,13,8.653,20.891,8.652c16.293-0.001,29.546-13.256,29.546-29.548
				C153.266,324.677,150.192,317.258,144.612,311.678z"/>
		</g>
	</g>
	<g>
		<g>
			<polygon class="st4" points="111.264,372.524 118.998,390.782 129.29,390.782 136.882,372.524 			"/>
		</g>
	</g>
	<g>
		<g>
			<path class="st4" d="M129.304,390.781H119l-11.959,62.716l12.231,16.672c2.065,0.156,4.168,0.214,6.272,0.214
				c1.013,0,2.045-0.019,3.058-0.058l11.823-16.614C136.919,432.111,129.304,390.781,129.304,390.781z"/>
		</g>
	</g>
	<g>
		<g>
			<g>
				<path class="st2" d="M106.854,369.602l10.208,24.101h14.178l10.021-24.101H106.854z M127.341,387.86h-6.408l-5.259-12.415h16.83
					L127.341,387.86z"/>
			</g>
		</g>
	</g>
	<g>
		<g>
			<g>
				<path class="st2" d="M143.308,453.243c-3.47-21.383-11.056-62.579-11.132-62.992l-0.44-2.392h-15.154l-12.65,66.341
					l13.779,18.781l1.341,0.101c1.988,0.15,4.111,0.224,6.491,0.224c1.05,0,2.121-0.021,3.171-0.061l1.435-0.055l13.35-18.762
					L143.308,453.243z M127.065,467.447c-2.233,0.047-4.351,0-6.243-0.105l-10.673-14.548l11.269-59.092h5.452
					c1.638,8.934,7.442,40.748,10.479,59.294L127.065,467.447z"/>
			</g>
		</g>
	</g>
	<g>
		<g>
			<g>
				<path class="st2" d="M214.242,418.668c-8.46-28.885-35.403-49.06-65.519-49.06h-46.375c-30.106,0-57.041,20.174-65.5,49.061
					l-0.342,1.164l0.584,1.063c2.29,4.168,4.904,8.216,7.78,12.042l0.603,0.813c17.768,23.172,44.599,37.508,73.58,39.33
					c1.988,0.15,4.111,0.224,6.491,0.224c1.05,0,2.121-0.021,3.145-0.06c13.218-0.392,26.014-3.322,38.032-8.709
					c0.169-0.067,0.334-0.146,0.517-0.242c17.783-8.822,30.626-21.652,38.277-30.873c1.332-1.62,2.633-3.283,3.943-5.051
					c1.547-2.293,3.032-4.736,4.538-7.469l0.587-1.065L214.242,418.668z M204.693,424.992c-1.178,1.584-2.419,3.172-3.682,4.708
					c-7.282,8.776-19.502,20.994-36.368,29.36l-0.23,0.108c-11.339,5.096-23.416,7.867-35.921,8.237
					c-0.976,0.038-1.97,0.057-2.946,0.057c-2.231,0-4.21-0.067-6.088-0.209c-27.004-1.698-52.003-14.905-68.743-36.278l-0.604-0.798
					c-2.685-3.5-5.138-7.204-7.302-11.026c8.108-25.791,32.416-43.699,59.54-43.699h46.375c27.134,0,51.45,17.908,59.559,43.699
					C207.067,421.298,205.871,423.241,204.693,424.992z"/>
			</g>
		</g>
	</g>
	<g>
		<g>
			<g>
				<path class="st2" d="M125.544,271.737c-55.578,0-100.794,45.216-100.794,100.794c0,16.897,4.266,33.621,12.34,48.366
					c2.29,4.168,4.904,8.216,7.78,12.042l0.603,0.813c17.768,23.172,44.599,37.508,73.58,39.33c1.988,0.15,4.111,0.224,6.491,0.224
					c1.05,0,2.121-0.021,3.145-0.06c13.218-0.392,26.014-3.322,38.033-8.709c0.169-0.067,0.333-0.146,0.516-0.242
					c17.783-8.822,30.626-21.652,38.277-30.873c1.332-1.62,2.633-3.283,3.943-5.051c1.547-2.293,3.032-4.736,4.543-7.477
					c8.07-14.742,12.337-31.466,12.337-48.363C226.338,316.952,181.122,271.737,125.544,271.737z M208.88,418.08
					c-1.422,2.578-2.816,4.875-4.187,6.912c-1.178,1.584-2.419,3.172-3.682,4.708c-7.282,8.776-19.502,20.994-36.368,29.36
					l-0.23,0.108c-11.339,5.096-23.416,7.867-35.921,8.237c-0.976,0.038-1.97,0.057-2.946,0.057c-2.231,0-4.21-0.067-6.088-0.209
					c-27.004-1.698-52.003-14.905-68.743-36.278l-0.604-0.798c-2.934-3.825-5.591-7.893-7.895-12.089
					c-7.603-13.884-11.621-29.638-11.621-45.557c0-52.356,42.595-94.95,94.951-94.95s94.951,42.594,94.951,94.95
					C220.495,388.45,216.477,404.202,208.88,418.08z"/>
			</g>
		</g>
	</g>
	<g>
		<g>
			<path class="st1" d="M408.464,382.931h-46.375c-28.281,0-51.653,21.464-54.555,49.023c0,0.02,0,0.02,0,0.02
				c16.711,21.794,42.363,36.363,71.481,38.194c2.065,0.156,4.168,0.214,6.272,0.214c1.013,0,2.045-0.019,3.058-0.058
				c13.147-0.39,25.651-3.389,37.006-8.492c0.117-0.039,0.214-0.098,0.331-0.156c17.354-8.609,29.819-21.074,37.318-30.112
				C459.903,404.22,436.588,382.931,408.464,382.931z"/>
		</g>
	</g>
	<g>
		<g>
			<g>
				<path class="st2" d="M413.778,302.253c-8.097-8.097-18.863-12.555-30.313-12.555h-0.004
					c-23.641,0.001-42.874,19.235-42.874,42.876c0,11.451,4.46,22.218,12.557,30.316c8.099,8.097,18.865,12.557,30.317,12.556
					c23.641-0.001,42.874-19.236,42.874-42.876C426.335,321.117,421.875,310.35,413.778,302.253z M383.461,369.602
					c-9.891,0-19.19-3.851-26.184-10.844c-6.996-6.994-10.847-16.293-10.847-26.184c0-20.419,16.613-37.032,37.031-37.033
					c0.002,0,0.002,0,0.004,0c9.889,0,19.188,3.852,26.182,10.845c6.994,6.994,10.846,16.292,10.846,26.184
					C420.492,352.989,403.88,369.601,383.461,369.602z"/>
			</g>
		</g>
	</g>
	<g>
		<g>
			<path class="st3" d="M404.353,311.678c-5.58-5.58-12.999-8.653-20.89-8.652c-16.292,0.001-29.547,13.256-29.547,29.548
				c0,7.892,3.073,15.311,8.654,20.891c5.58,5.58,13,8.653,20.891,8.652c16.292-0.001,29.546-13.256,29.546-29.548
				C413.007,324.677,409.934,317.258,404.353,311.678z"/>
		</g>
	</g>
	<g>
		<g>
			<polygon class="st4" points="371.005,372.524 378.739,390.782 389.031,390.782 396.623,372.524 			"/>
		</g>
	</g>
	<g>
		<g>
			<path class="st4" d="M389.045,390.781h-10.304l-11.959,62.716l12.231,16.672c2.065,0.156,4.168,0.214,6.272,0.214
				c1.013,0,2.045-0.019,3.058-0.058l11.823-16.614C396.66,432.111,389.045,390.781,389.045,390.781z"/>
		</g>
	</g>
	<g>
		<g>
			<g>
				<path class="st2" d="M366.595,369.602l10.206,24.101h14.178l10.022-24.101H366.595z M387.081,387.86h-6.406l-5.257-12.415
					h16.827L387.081,387.86z"/>
			</g>
		</g>
	</g>
	<g>
		<g>
			<g>
				<path class="st2" d="M403.05,453.243c-3.469-21.383-11.055-62.579-11.131-62.992l-0.441-2.392h-15.154L363.674,454.2
					l13.78,18.781l1.339,0.101c1.99,0.15,4.114,0.224,6.492,0.224c1.052,0,2.123-0.021,3.171-0.061l1.436-0.055l13.351-18.762
					L403.05,453.243z M386.805,467.447c-2.224,0.045-4.348,0-6.241-0.105l-10.674-14.548l11.27-59.092h5.451
					c1.638,8.934,7.443,40.748,10.478,59.294L386.805,467.447z"/>
			</g>
		</g>
	</g>
	<g>
		<g>
			<g>
				<path class="st2" d="M473.984,418.668c-8.46-28.885-35.403-49.06-65.52-49.06H362.09c-30.106,0-57.041,20.174-65.501,49.06
					l-0.34,1.165l0.584,1.063c2.292,4.173,4.907,8.22,7.779,12.042l0.603,0.813c17.767,23.172,44.599,37.508,73.579,39.33
					c1.99,0.15,4.114,0.224,6.492,0.224c1.052,0,2.123-0.021,3.144-0.06c13.219-0.392,26.012-3.321,38.03-8.708
					c0.175-0.069,0.34-0.148,0.521-0.244c17.786-8.823,30.627-21.653,38.275-30.872c1.32-1.604,2.621-3.267,3.945-5.053
					c1.546-2.292,3.03-4.734,4.538-7.468l0.588-1.065L473.984,418.668z M464.435,424.991c-1.191,1.601-2.433,3.188-3.684,4.709
					c-7.281,8.774-19.5,20.991-36.369,29.359l-0.23,0.108c-11.338,5.096-23.416,7.867-35.92,8.237
					c-0.976,0.038-1.971,0.057-2.946,0.057c-2.231,0-4.209-0.067-6.089-0.209c-27.003-1.698-52.002-14.905-68.742-36.278
					l-0.603-0.798c-2.684-3.496-5.135-7.2-7.304-11.026c8.11-25.791,32.419-43.699,59.542-43.699h46.374
					c27.135,0,51.451,17.907,59.561,43.698C466.807,421.299,465.611,423.242,464.435,424.991z"/>
			</g>
		</g>
	</g>
	<g>
		<g>
			<g>
				<path class="st2" d="M385.285,271.737c-55.576,0-100.792,45.216-100.792,100.794c0,16.898,4.266,33.622,12.339,48.366
					c2.292,4.173,4.907,8.22,7.779,12.042l0.603,0.813c17.767,23.172,44.599,37.508,73.579,39.33c1.99,0.15,4.114,0.224,6.492,0.224
					c1.052,0,2.123-0.021,3.144-0.06c13.219-0.392,26.012-3.321,38.03-8.708c0.175-0.069,0.34-0.148,0.521-0.244
					c17.786-8.823,30.627-21.653,38.275-30.872c1.32-1.604,2.621-3.266,3.945-5.053c1.546-2.291,3.03-4.734,4.542-7.476
					c8.07-14.741,12.337-31.465,12.337-48.363C486.079,316.952,440.863,271.737,385.285,271.737z M468.622,418.079
					c-1.423,2.58-2.817,4.877-4.186,6.912c-1.191,1.601-2.433,3.188-3.684,4.709c-7.281,8.774-19.5,20.991-36.369,29.359
					l-0.23,0.108c-11.338,5.096-23.416,7.867-35.92,8.237c-0.976,0.038-1.971,0.057-2.946,0.057c-2.231,0-4.209-0.067-6.089-0.209
					c-27.003-1.698-52.002-14.905-68.742-36.278l-0.603-0.798c-2.931-3.82-5.588-7.889-7.897-12.089
					c-7.601-13.884-11.618-29.637-11.618-45.557c0-52.356,42.595-94.95,94.949-94.95c52.356,0,94.95,42.594,94.95,94.95
					C480.236,388.451,476.219,404.203,468.622,418.079z"/>
			</g>
		</g>
	</g>
	<g>
		<g>
			<g>
				<path class="st2" d="M234.963,375.442h5.843v-5.843h-5.843V375.442z M246.65,375.442h5.843v-5.843h-5.843V375.442z
					 M258.336,375.442h5.843v-5.843h-5.843V375.442z M270.022,369.599v5.843h5.318v-5.843H270.022z"/>
			</g>
		</g>
	</g>
	<g>
		<g>
			<g>
				<path class="st2" d="M180.564,260.813l5.029,2.977l2.976-5.028l-5.029-2.977L180.564,260.813z M174.612,270.87l5.029,2.977
					l2.976-5.028l-5.029-2.977L174.612,270.87z M195.177,236.124l-2.708,4.576l5.029,2.977l2.708-4.576L195.177,236.124z
					 M186.516,250.757l5.029,2.977l2.976-5.028l-5.029-2.977L186.516,250.757z"/>
			</g>
		</g>
	</g>
	<g>
		<g>
			<g>
				<path class="st2" d="M320.764,245.729l-5.029,2.975l2.975,5.029l5.029-2.975L320.764,245.729z M315.078,236.124l-5.029,2.977
					l2.708,4.576l5.029-2.977L315.078,236.124z M326.715,255.785l-5.029,2.977l2.977,5.028l5.029-2.977L326.715,255.785z
					 M332.667,265.842l-5.029,2.977l2.977,5.028l5.029-2.977L332.667,265.842z"/>
			</g>
		</g>
	</g>
	<g>
		<g>
			<g>
				<path class="st2" d="M278.856,426.622l-5.208,2.649c0.898,1.766,1.853,3.537,2.836,5.265l5.079-2.891
					C280.623,429.996,279.713,428.306,278.856,426.622z M298.475,454.52l-4.253,4.008c1.36,1.444,2.777,2.875,4.209,4.254
					l4.051-4.209C301.119,457.259,299.771,455.896,298.475,454.52z M312.193,474.265c1.611,1.16,3.271,2.296,4.936,3.377
					l3.184-4.899c-1.586-1.03-3.169-2.113-4.704-3.219L312.193,474.265z M284.497,436.533l-4.934,3.131
					c1.067,1.68,2.185,3.353,3.325,4.973l4.778-3.363C286.58,439.73,285.513,438.135,284.497,436.533z M325.165,475.74l-2.948,5.044
					c0.884,0.517,1.776,1.025,2.678,1.525c0.846,0.47,1.699,0.928,2.553,1.376l2.712-5.176c-0.816-0.427-1.626-0.865-2.433-1.311
					C326.865,476.721,326.011,476.234,325.165,475.74z M291.055,445.86l-4.615,3.585c1.227,1.579,2.499,3.138,3.783,4.635
					l4.436-3.804C293.437,448.852,292.225,447.366,291.055,445.86z M302.833,466.828c1.506,1.318,3.053,2.608,4.593,3.831
					l3.633-4.578c-1.47-1.165-2.943-2.393-4.38-3.65L302.833,466.828z M370.297,247.011c-1.967,0.247-3.956,0.546-5.914,0.887
					l1,5.756c1.87-0.325,3.768-0.61,5.644-0.845L370.297,247.011z M332.807,486.339c1.799,0.839,3.642,1.646,5.478,2.399
					l2.218-5.406c-1.752-0.719-3.509-1.49-5.227-2.289L332.807,486.339z M355.326,494.344c1.931,0.484,3.895,0.927,5.837,1.317
					l1.149-5.729c-1.851-0.372-3.722-0.794-5.563-1.256L355.326,494.344z M358.517,249.064c-1.929,0.431-3.88,0.916-5.803,1.44
					l1.541,5.637c1.834-0.5,3.698-0.963,5.537-1.374L358.517,249.064z M343.874,490.877c1.881,0.669,3.795,1.297,5.685,1.869
					l1.689-5.594c-1.801-0.544-3.623-1.143-5.415-1.781L343.874,490.877z M505.742,362.231l5.824-0.485
					c-0.166-1.981-0.38-3.982-0.637-5.947l-5.794,0.759C505.381,358.432,505.586,360.341,505.742,362.231z M367.058,496.698
					c1.961,0.298,3.958,0.552,5.936,0.755l0.597-5.813c-1.885-0.194-3.789-0.436-5.659-0.719L367.058,496.698z M493.56,318.532
					l5.234-2.6c-0.881-1.77-1.816-3.549-2.785-5.289l-5.105,2.842C491.827,315.145,492.721,316.843,493.56,318.532z
					 M501.718,339.801l5.63-1.569c-0.538-1.926-1.124-3.851-1.744-5.722l-5.546,1.837
					C500.647,336.13,501.206,337.965,501.718,339.801z M488.013,308.573l4.964-3.083c-1.056-1.698-2.157-3.381-3.273-5.002
					l-4.812,3.317C485.957,305.349,487.007,306.953,488.013,308.573z M504.26,350.921l5.752-1.033
					c-0.348-1.942-0.751-3.913-1.196-5.859l-5.695,1.301C503.545,347.187,503.928,349.068,504.26,350.921z M274.173,416.222
					l-5.436,2.146c0.736,1.862,1.518,3.716,2.328,5.509l5.326-2.4C275.62,419.766,274.873,417.998,274.173,416.222z
					 M460.709,270.597c-1.605-1.18-3.254-2.333-4.902-3.426l-3.234,4.867c1.571,1.043,3.144,2.142,4.673,3.267L460.709,270.597z
					 M270.494,405.428l-5.615,1.621c0.559,1.935,1.164,3.856,1.799,5.709l5.527-1.893
					C271.603,409.101,271.027,407.272,270.494,405.428z M478.514,286.5c-1.341-1.452-2.741-2.896-4.162-4.29l-4.093,4.169
					c1.352,1.328,2.686,2.703,3.964,4.087L478.514,286.5z M481.55,299.19l4.649-3.542c-1.212-1.589-2.469-3.159-3.736-4.667
					l-4.474,3.76C479.197,296.178,480.396,297.675,481.55,299.19z M469.995,278.127c-1.48-1.322-3.013-2.627-4.555-3.876
					l-3.679,4.538c1.47,1.192,2.931,2.436,4.342,3.696L469.995,278.127z M498.142,328.97l5.455-2.09
					c-0.711-1.857-1.476-3.719-2.273-5.532l-5.349,2.351C496.734,325.427,497.463,327.201,498.142,328.97z M472.055,455.958
					l4.188,4.076c1.402-1.441,2.769-2.916,4.063-4.383l-4.382-3.865C474.693,453.182,473.392,454.586,472.055,455.958z
					 M479.602,447.425l4.557,3.656c1.244-1.55,2.465-3.149,3.631-4.751l-4.725-3.437
					C481.953,444.42,480.787,445.946,479.602,447.425z M486.311,438.202l4.881,3.211c1.086-1.65,2.151-3.357,3.167-5.074
					l-5.029-2.975C488.361,435,487.346,436.628,486.311,438.202z M463.733,463.73l3.781,4.457c1.514-1.286,3.017-2.623,4.462-3.974
					l-3.99-4.268C466.609,461.231,465.179,462.505,463.733,463.73z M492.125,428.383l5.162,2.741c0.934-1.76,1.835-3.56,2.68-5.349
					l-5.284-2.494C493.877,424.988,493.018,426.705,492.125,428.383z M454.703,470.677l3.34,4.795
					c1.626-1.133,3.249-2.32,4.822-3.529l-3.561-4.632C457.803,468.464,456.255,469.597,454.703,470.677z M496.999,418.065
					l5.394,2.242c0.77-1.851,1.499-3.727,2.166-5.579l-5.497-1.982C498.427,414.51,497.733,416.3,496.999,418.065z M505.47,385.017
					l5.809,0.626c0.211-1.962,0.38-3.968,0.498-5.961l-5.832-0.348C505.832,381.234,505.672,383.147,505.47,385.017z M511.92,367.72
					l-5.839,0.207c0.049,1.417,0.076,2.837,0.076,4.259l-0.009,1.448l5.843,0.067l0.01-1.515
					C512,370.696,511.973,369.207,511.92,367.72z M500.871,407.331l5.584,1.723c0.586-1.901,1.134-3.84,1.624-5.762l-5.66-1.448
					C501.951,403.675,501.43,405.521,500.871,407.331z M503.705,396.286l5.721,1.177c0.399-1.934,0.757-3.915,1.067-5.887
					l-5.775-0.904C504.426,392.553,504.084,394.441,503.705,396.286z M445.052,476.734l2.865,5.092
					c1.731-0.974,3.46-2.002,5.139-3.057l-3.108-4.949C448.348,474.827,446.699,475.806,445.052,476.734z M390.683,492.172
					l0.236,5.837c1.986-0.08,3.994-0.208,5.971-0.382l-0.51-5.82C394.493,491.973,392.576,492.095,390.683,492.172z
					 M406.065,247.625c-1.953-0.316-3.949-0.59-5.927-0.813l-0.654,5.807c1.885,0.212,3.785,0.473,5.649,0.775L406.065,247.625z
					 M382.219,246.079c-1.995,0.062-4.006,0.171-5.972,0.325l0.456,5.826c1.875-0.147,3.793-0.252,5.695-0.31L382.219,246.079z
					 M402.048,491.173l0.787,5.79c1.961-0.266,3.947-0.585,5.904-0.945l-1.057-5.746
					C405.814,490.616,403.918,490.919,402.048,491.173z M378.959,497.923c1.978,0.108,3.989,0.171,5.978,0.186l0.042-5.843
					c-1.896-0.014-3.815-0.073-5.7-0.176L378.959,497.923z M417.774,250.096c-1.931-0.505-3.892-0.967-5.824-1.375l-1.206,5.718
					c1.843,0.388,3.711,0.829,5.55,1.311L417.774,250.096z M394.179,246.282c-1.972-0.127-3.983-0.21-5.978-0.244l-0.099,5.843
					c1.902,0.032,3.817,0.11,5.697,0.233L394.179,246.282z M434.864,481.854l2.374,5.339c1.801-0.8,3.618-1.66,5.402-2.556
					l-2.621-5.221C438.316,480.271,436.582,481.09,434.864,481.854z M440.213,258.32c-1.796-0.858-3.631-1.683-5.457-2.452
					l-2.267,5.385c1.74,0.733,3.492,1.521,5.206,2.34L440.213,258.32z M413.264,489.105l1.331,5.689
					c1.933-0.452,3.88-0.955,5.788-1.497l-1.594-5.621C416.968,488.193,415.109,488.674,413.264,489.105z M450.752,263.979
					c-1.233-0.738-2.482-1.458-3.751-2.16c-0.485-0.267-0.97-0.533-1.455-0.793l-2.762,5.151c0.466,0.249,0.928,0.501,1.39,0.756
					c1.208,0.668,2.4,1.356,3.576,2.06L450.752,263.979z M429.188,253.675c-1.868-0.685-3.774-1.333-5.666-1.926l-1.746,5.577
					c1.803,0.565,3.62,1.182,5.4,1.834L429.188,253.675z M424.235,485.989l1.86,5.539c1.883-0.632,3.776-1.317,5.622-2.035
					l-2.119-5.446C427.838,484.732,426.033,485.385,424.235,485.989z"/>
			</g>
		</g>
	</g>
	<g>
		<g>
			<g>
				<path class="st2" d="M7.279,390.931l-5.773,0.903c0.306,1.959,0.666,3.939,1.066,5.887l5.723-1.177
					C7.914,394.687,7.571,392.798,7.279,390.931z M17.317,423.539l-5.284,2.494c0.845,1.79,1.746,3.589,2.681,5.35l5.16-2.741
					C18.983,426.962,18.123,425.246,17.317,423.539z M22.667,433.62l-5.027,2.979c1.01,1.705,2.075,3.411,3.166,5.071l4.883-3.209
					C24.648,436.876,23.631,435.248,22.667,433.62z M12.938,413.004l-5.497,1.982c0.671,1.863,1.4,3.74,2.165,5.579l5.396-2.243
					C14.272,416.569,13.578,414.779,12.938,413.004z M9.581,402.103l-5.66,1.448c0.49,1.915,1.037,3.854,1.623,5.76l5.584-1.72
					C10.568,405.773,10.048,403.927,9.581,402.103z M28.935,443.152l-4.727,3.433c1.161,1.6,2.383,3.199,3.631,4.754l4.557-3.657
					C31.207,446.2,30.043,444.675,28.935,443.152z M58.944,479.028c1.693,1.061,3.421,2.089,5.137,3.056l2.866-5.092
					c-1.636-0.922-3.285-1.902-4.9-2.915L58.944,479.028z M64.998,262.079c-1.268,0.701-2.516,1.42-3.749,2.158l3.001,5.014
					c1.176-0.704,2.367-1.39,3.578-2.06c0.462-0.256,0.925-0.509,1.39-0.758l-2.766-5.147
					C65.967,261.546,65.481,261.811,64.998,262.079z M69.359,484.896c1.779,0.893,3.598,1.753,5.403,2.555l2.374-5.339
					c-1.722-0.766-3.457-1.586-5.156-2.439L69.359,484.896z M49.134,472.2c1.57,1.209,3.193,2.397,4.824,3.532l3.338-4.797
					c-1.555-1.081-3.102-2.214-4.597-3.365L49.134,472.2z M40.023,464.472c1.449,1.354,2.951,2.69,4.463,3.973l3.779-4.457
					c-1.441-1.222-2.872-2.497-4.254-3.787L40.023,464.472z M31.692,455.91c1.308,1.481,2.674,2.955,4.064,4.382l4.186-4.076
					c-1.323-1.359-2.625-2.764-3.87-4.173L31.692,455.91z M71.787,258.579l2.52,5.271c1.721-0.823,3.472-1.609,5.205-2.338
					l-2.265-5.387C75.43,256.89,73.592,257.716,71.787,258.579z M21.095,313.744L15.99,310.9c-0.963,1.73-1.9,3.51-2.784,5.292
					l5.234,2.596C19.283,317.089,20.176,315.393,21.095,313.744z M27.108,304.062l-4.812-3.315
					c-1.126,1.635-2.227,3.317-3.273,5.001l4.964,3.083C24.984,307.225,26.033,305.621,27.108,304.062z M41.742,286.637
					l-4.095-4.169c-1.415,1.391-2.816,2.834-4.162,4.29l4.291,3.966C39.059,289.337,40.393,287.962,41.742,286.637z M34.01,294.998
					l-4.474-3.759c-1.273,1.515-2.53,3.085-3.734,4.667l4.649,3.54C31.599,297.939,32.796,296.442,34.01,294.998z M59.427,272.296
					l-3.234-4.867c-1.646,1.094-3.295,2.246-4.901,3.426l3.46,4.709C56.284,274.438,57.857,273.338,59.427,272.296z M50.238,279.048
					l-3.679-4.54c-1.533,1.242-3.065,2.547-4.555,3.877l3.892,4.358C47.316,281.475,48.777,280.231,50.238,279.048z M6.058,379.592
					l-5.834,0.346c0.118,1.973,0.285,3.98,0.499,5.962l5.809-0.626C6.329,383.385,6.169,381.473,6.058,379.592z M16.025,323.956
					l-5.351-2.349c-0.795,1.813-1.56,3.673-2.272,5.53l5.455,2.092C14.537,327.458,15.266,325.684,16.025,323.956z M5.843,372.444
					c0-1.421,0.025-2.841,0.076-4.257l-5.839-0.211C0.027,369.462,0,370.953,0,372.449l0.01,1.509l5.843-0.067L5.843,372.444z
					 M6.864,356.815l-5.794-0.759c-0.258,1.965-0.472,3.966-0.636,5.947l5.822,0.485C6.414,360.599,6.618,358.69,6.864,356.815z
					 M8.878,345.588l-5.697-1.301c-0.441,1.933-0.844,3.904-1.194,5.859l5.752,1.033C8.073,349.313,8.457,347.432,8.878,345.588z
					 M11.942,334.6l-5.55-1.83c-0.626,1.901-1.212,3.825-1.74,5.719l5.628,1.569C10.785,338.251,11.344,336.414,11.942,334.6z
					 M140.974,253.068c1.875,0.236,3.774,0.52,5.643,0.846l1.002-5.758c-1.959-0.34-3.95-0.639-5.914-0.886L140.974,253.068z
					 M191.688,473.003l3.184,4.9c1.657-1.077,3.317-2.213,4.934-3.377l-3.414-4.742C194.85,470.893,193.268,471.977,191.688,473.003
					z M152.211,255.025c1.838,0.411,3.702,0.874,5.538,1.375l1.539-5.638c-1.923-0.524-3.875-1.009-5.802-1.44L152.211,255.025z
					 M184.277,477.457c-0.81,0.448-1.623,0.886-2.438,1.315l2.718,5.172c0.853-0.448,1.702-0.906,2.553-1.376
					c0.9-0.499,1.793-1.008,2.676-1.526L186.833,476C185.988,476.495,185.135,476.981,184.277,477.457z M200.94,466.342l3.633,4.576
					c1.549-1.23,3.095-2.519,4.594-3.832l-3.85-4.396C203.889,463.941,202.416,465.17,200.94,466.342z M171.499,483.59l2.212,5.408
					c1.821-0.745,3.665-1.552,5.483-2.399l-2.469-5.295C174.992,482.111,173.234,482.88,171.499,483.59z M160.748,487.412
					l1.689,5.594c1.894-0.573,3.807-1.201,5.686-1.869l-1.957-5.505C164.376,486.268,162.552,486.867,160.748,487.412z
					 M209.516,458.834l4.053,4.207c1.43-1.378,2.846-2.808,4.208-4.253l-4.251-4.008
					C212.229,456.157,210.879,457.521,209.516,458.834z M235.609,421.738l5.328,2.398c0.813-1.805,1.595-3.659,2.325-5.509
					l-5.436-2.144C237.129,418.247,236.384,420.015,235.609,421.738z M241.506,405.686c-0.526,1.817-1.102,3.648-1.713,5.444
					l5.531,1.883c0.641-1.881,1.244-3.799,1.796-5.702L241.506,405.686z M224.331,441.535l4.78,3.361
					c1.145-1.628,2.262-3.301,3.323-4.974l-4.934-3.129C226.489,438.387,225.423,439.983,224.331,441.535z M230.441,431.905
					l5.078,2.891c0.98-1.723,1.934-3.495,2.835-5.266l-5.21-2.648C232.287,428.572,231.376,430.261,230.441,431.905z
					 M217.337,450.538l4.438,3.802c1.292-1.508,2.564-3.067,3.782-4.634l-4.614-3.585
					C219.782,447.614,218.569,449.101,217.337,450.538z M105.936,247.884l0.93,5.769c1.872-0.302,3.773-0.563,5.651-0.774
					l-0.654-5.807C109.892,247.294,107.898,247.567,105.936,247.884z M103.26,496.276c1.953,0.361,3.94,0.678,5.905,0.945
					l0.787-5.79c-1.875-0.255-3.77-0.558-5.633-0.902L103.26,496.276z M94.23,250.356l1.478,5.653
					c1.84-0.481,3.708-0.923,5.55-1.311l-1.204-5.718C98.119,249.388,96.16,249.851,94.23,250.356z M149.684,490.19l1.151,5.729
					c1.945-0.391,3.909-0.834,5.836-1.317l-1.423-5.668C153.411,489.396,151.539,489.819,149.684,490.19z M91.616,493.555
					c1.913,0.543,3.86,1.046,5.789,1.497l1.329-5.689c-1.84-0.431-3.699-0.911-5.523-1.429L91.616,493.555z M80.279,489.75
					c1.844,0.717,3.736,1.403,5.624,2.036l1.858-5.541c-1.8-0.603-3.604-1.256-5.361-1.941L80.279,489.75z M82.813,253.934
					l2.011,5.486c1.783-0.653,3.6-1.271,5.402-1.834l-1.746-5.577C86.589,252.601,84.682,253.249,82.813,253.934z M115.11,497.886
					c1.974,0.174,3.982,0.302,5.97,0.382l0.236-5.837c-1.895-0.077-3.811-0.2-5.694-0.365L115.11,497.886z M129.604,252.18
					c1.894,0.058,3.811,0.162,5.696,0.309l0.455-5.826c-1.976-0.154-3.986-0.262-5.971-0.324L129.604,252.18z M138.41,491.898
					l0.597,5.813c1.972-0.202,3.969-0.456,5.934-0.754l-0.873-5.776C142.193,491.464,140.289,491.706,138.41,491.898z
					 M127.02,492.525l0.044,5.843c1.989-0.014,4-0.077,5.978-0.185l-0.319-5.834C130.837,492.452,128.918,492.511,127.02,492.525z
					 M117.822,246.543l0.379,5.832c1.878-0.123,3.795-0.201,5.699-0.233l-0.101-5.843
					C121.804,246.333,119.792,246.416,117.822,246.543z"/>
			</g>
		</g>
	</g>
</g>
</svg>
