<?xml version="1.0" encoding="utf-8"?>
<!-- Generator: Adobe Illustrator 21.0.0, SVG Export Plug-In . SVG Version: 6.00 Build 0)  -->
<svg version="1.1" id="Layer_1" xmlns="http://www.w3.org/2000/svg" xmlns:xlink="http://www.w3.org/1999/xlink" x="0px" y="0px"
	 viewBox="0 0 512 512" style="enable-background:new 0 0 512 512;" xml:space="preserve">
<style type="text/css">
	.st0{fill:#71CCE0;}
	.st1{fill:#DFDFDF;}
	.st2{fill:#4A555F;}
	.st3{fill:#FFD452;}
	.st4{fill:#F58E6F;}
	.st5{fill:#FFFFFF;}
	.st6{fill:none;}
</style>
<g>
	<g>
		<g>
			<g>
				<path class="st2" d="M404.438,255.046l16.797-48.12V0H29.325v512h391.91V285.676l-42.769,122.458
					c-0.08,0.231-8.29,23.267-25.798,38.75l-2.21,2.095l-0.439-3.128c-4.03-22.872,3.843-45.957,3.948-46.259L404.438,255.046z
					 M343.251,446.921l2.271,16.177l11.772-11.163c18.795-16.617,27.288-40.532,27.64-41.541l29.449-84.321v179.075H36.176V6.852
					h378.207v198.912l-66.885,191.569C347.143,398.347,338.916,422.33,343.251,446.921z"/>
			</g>
		</g>
	</g>
	<g>
		<g>
			<g>
				<path class="st1" d="M406.389,204.404V14.844H44.17v482.303h362.218V373.203l-13.909,39.83
					c-0.388,1.073-9.501,26.767-29.736,44.763l-22.975,21.765l-4.408-31.334c-4.636-26.676,4.202-52.437,4.591-53.533
					L406.389,204.404z M334.927,95.076H115.609V51.82h219.318V95.076z"/>
			</g>
		</g>
	</g>
	<g>
		<g>
			<g>
				<path class="st2" d="M112.195,48.397v50.099h226.168V48.397H112.195z M331.511,91.644H119.046V55.248h212.465V91.644z"/>
			</g>
		</g>
	</g>
	<g>
		<g>
			<rect x="100.923" y="150.607" class="st2" width="253.721" height="6.851"/>
		</g>
	</g>
	<g>
		<g>
			<rect x="100.923" y="196.301" class="st2" width="253.721" height="6.851"/>
		</g>
	</g>
	<g>
		<g>
			<rect x="100.923" y="241.994" class="st2" width="253.721" height="6.852"/>
		</g>
	</g>
	<g>
		<g>
			<rect x="100.923" y="287.688" class="st2" width="253.721" height="6.852"/>
		</g>
	</g>
	<g>
		<g>
			<rect x="141.445" y="333.381" class="st2" width="167.664" height="6.852"/>
		</g>
	</g>
	<g>
		<g>
			<rect x="256.503" y="454.205" class="st2" width="79.232" height="6.852"/>
		</g>
	</g>
	<g>
		<g>
			<rect x="110.97" y="454.205" class="st2" width="79.234" height="6.852"/>
		</g>
	</g>
	<g>
		<g>
			<g>
				<path class="st2" d="M399.089,249.562l-52.722,151.006l37.44,13.072l52.722-151.006L399.089,249.562z M379.596,404.912
					l-24.504-8.555L403.3,258.289l24.505,8.555L379.596,404.912z"/>
			</g>
		</g>
	</g>
	<g>
		<g>
			
				<rect x="326.321" y="326.617" transform="matrix(0.3296 -0.9441 0.9441 0.3296 -50.6516 591.8666)" class="st4" width="130.255" height="9.967"/>
		</g>
	</g>
	<g>
		<g>
			<g>
				<path class="st2" d="M426.857,170.033l-30.024,85.998l37.44,13.072l30.022-85.997L426.857,170.033z M430.062,260.375
					l-24.505-8.555l25.51-73.06l24.502,8.556L430.062,260.375z"/>
			</g>
		</g>
	</g>
	<g>
		<g>
			
				<rect x="399.866" y="214.584" transform="matrix(0.3296 -0.9441 0.9441 0.3296 81.3459 553.6971)" class="st4" width="61.398" height="9.967"/>
		</g>
	</g>
	<g>
		<g>
			<polygon class="st2" points="431.039,158.054 425.729,173.267 432.196,175.526 435.25,166.781 473.95,180.293 435.468,290.505 
				441.936,292.764 482.675,176.083 			"/>
		</g>
	</g>
	<g>
		<g>
			<g>
				<path class="st2" d="M348.624,394.099l-1.128,3.234c-0.353,1.009-8.58,25-4.222,49.714l0.35,1.976l12.171,4.251l1.503-1.33
					c18.792-16.63,27.286-40.528,27.638-41.538l1.128-3.235L348.624,394.099z M354.229,445.471l-4.525-1.581
					c-2.527-17.165,1.336-34.08,3.267-41.016l24.235,8.461C374.409,417.96,366.922,433.584,354.229,445.471z"/>
			</g>
		</g>
	</g>
	<g>
		<g>
			<path class="st4" d="M358.723,413.347c-0.926,4.814-1.751,10.825-1.853,17.291c3.943-5.125,7.041-10.343,9.312-14.686
				L358.723,413.347z"/>
		</g>
	</g>
	<g>
		<g>
			<polygon class="st2" points="342.471,441.364 345.535,463.1 361.462,447.995 			"/>
		</g>
	</g>
	<g>
		<g>
			<rect x="127.029" y="63.24" class="st3" width="196.48" height="20.418"/>
		</g>
	</g>
</g>
</svg>
