<svg xmlns="http://www.w3.org/2000/svg" width="22.743" height="19.342" viewBox="0 0 22.743 19.342">
  <g id="menu" transform="translate(0 0.003)">
    <path id="Path_1" data-name="Path 1" d="M21.48,0H1.263A1.186,1.186,0,0,0,0,1.084V3.251A1.186,1.186,0,0,0,1.263,4.334H21.48A1.186,1.186,0,0,0,22.743,3.25V1.084A1.186,1.186,0,0,0,21.48,0Zm0,0" fill="#589167"/>
    <path id="Path_2" data-name="Path 2" d="M21.48,128H1.263A1.186,1.186,0,0,0,0,129.084v2.167a1.186,1.186,0,0,0,1.263,1.083H21.48a1.186,1.186,0,0,0,1.263-1.083v-2.167A1.186,1.186,0,0,0,21.48,128Zm0,0" transform="translate(0 -120.499)" fill="#589167"/>
    <path id="Path_3" data-name="Path 3" d="M21.48,256H1.263A1.186,1.186,0,0,0,0,257.083v2.167a1.186,1.186,0,0,0,1.263,1.083H21.48a1.186,1.186,0,0,0,1.263-1.083v-2.167A1.186,1.186,0,0,0,21.48,256Zm0,0" transform="translate(0 -240.997)" fill="#589167"/>
  </g>
</svg>
