<?xml version="1.0" encoding="utf-8"?>
<!-- Generator: Adobe Illustrator 17.0.0, SVG Export Plug-In . SVG Version: 6.00 Build 0)  -->
<!DOCTYPE svg PUBLIC "-//W3C//DTD SVG 1.1//EN" "http://www.w3.org/Graphics/SVG/1.1/DTD/svg11.dtd">
<svg version="1.1" id="icon" xmlns="http://www.w3.org/2000/svg" xmlns:xlink="http://www.w3.org/1999/xlink" x="0px" y="0px"
	 width="128px" height="128px" viewBox="0 0 128 128" enable-background="new 0 0 128 128" xml:space="preserve">
<rect x="5.5" y="56.667" fill="#FFFFFF" width="118" height="9"/>
<path fill="#6E4123" d="M123.5,67.667H5.5c-1.105,0-2-0.896-2-2v-9c0-1.104,0.895-2,2-2h118c1.104,0,2,0.896,2,2v9
	C125.5,66.771,124.604,67.667,123.5,67.667z M7.5,63.667h114v-5H7.5V63.667z"/>
<ellipse fill="#B8CBCD" cx="63.833" cy="114.481" rx="47.667" ry="11.813"/>
<polyline fill="#F7BB83" points="95.5,64.667 120.5,64.667 120.5,115.667 95.5,115.667 "/>
<path fill="#6E4123" d="M120.5,117.667h-25c-1.105,0-2-0.896-2-2s0.895-2,2-2h23v-47h-23c-1.105,0-2-0.896-2-2c0-1.104,0.895-2,2-2
	h25c1.104,0,2,0.896,2,2v51C122.5,116.771,121.604,117.667,120.5,117.667z"/>
<polyline fill="#F7BB83" points="95.5,46.667 95.5,64.668 95.5,115.667 33.5,115.667 33.5,44.667 "/>
<line fill="#F7BB83" x1="34.5" y1="64.668" x2="34.5" y2="46.667"/>
<path fill="#6E4123" d="M34.5,66.668c-1.105,0-2-0.896-2-2V46.667c0-1.104,0.895-2,2-2c1.104,0,2,0.896,2,2v18.001
	C36.5,65.772,35.604,66.668,34.5,66.668z"/>
<line fill="#F7BB83" x1="95.5" y1="115.667" x2="33.5" y2="115.667"/>
<path fill="#6E4123" d="M95.5,117.667h-62c-1.105,0-2-0.896-2-2s0.895-2,2-2h62c1.104,0,2,0.896,2,2S96.604,117.667,95.5,117.667z"
	/>
<line fill="#F7BB83" x1="94.5" y1="46.667" x2="94.5" y2="64.668"/>
<path fill="#6E4123" d="M94.5,66.668c-1.105,0-2-0.896-2-2V46.667c0-1.104,0.895-2,2-2c1.104,0,2,0.896,2,2v18.001
	C96.5,65.772,95.604,66.668,94.5,66.668z"/>
<polyline fill="#F7BB83" points="33.5,115.667 8.5,115.667 8.5,64.667 33.5,64.667 "/>
<path fill="#6E4123" d="M33.5,117.667h-25c-1.105,0-2-0.896-2-2v-51c0-1.104,0.895-2,2-2h25c1.104,0,2,0.896,2,2
	c0,1.104-0.896,2-2,2h-23v47h23c1.104,0,2,0.896,2,2S34.604,117.667,33.5,117.667z"/>
<polyline fill="#FFFFFF" points="33.5,46.667 27.5,46.667 40.5,28.667 87.5,28.667 101.5,46.667 95.5,46.667 "/>
<path fill="#6E4123" d="M101.5,48.667h-6c-1.105,0-2-0.896-2-2s0.895-2,2-2h1.911l-10.89-14H41.522l-10.111,14H33.5
	c1.104,0,2,0.896,2,2s-0.896,2-2,2h-6c-0.751,0-1.439-0.421-1.781-1.09c-0.342-0.668-0.28-1.473,0.159-2.081l13-18
	c0.376-0.521,0.979-0.829,1.622-0.829h47c0.617,0,1.2,0.285,1.579,0.773l14,18c0.469,0.603,0.553,1.42,0.218,2.106
	C102.961,48.231,102.264,48.667,101.5,48.667z"/>
<rect x="40.5" y="63.667" fill="#FFFFFF" width="11" height="23"/>
<path fill="#6E4123" d="M51.5,88.667h-11c-1.105,0-2-0.896-2-2v-23c0-1.104,0.895-2,2-2h11c1.104,0,2,0.896,2,2v23
	C53.5,87.771,52.604,88.667,51.5,88.667z M42.5,84.667h7v-19h-7V84.667z"/>
<rect x="16.5" y="93.667" fill="#FFFFFF" width="11" height="21"/>
<path fill="#6E4123" d="M27.5,116.667h-11c-1.105,0-2-0.896-2-2v-21c0-1.104,0.895-2,2-2h11c1.104,0,2,0.896,2,2v21
	C29.5,115.771,28.604,116.667,27.5,116.667z M18.5,112.667h7v-17h-7V112.667z"/>
<rect x="58.5" y="63.667" fill="#FFFFFF" width="12" height="23"/>
<path fill="#6E4123" d="M70.5,88.667h-12c-1.105,0-2-0.896-2-2v-23c0-1.104,0.895-2,2-2h12c1.104,0,2,0.896,2,2v23
	C72.5,87.771,71.604,88.667,70.5,88.667z M60.5,84.667h8v-19h-8V84.667z"/>
<rect x="77.5" y="63.667" fill="#FFFFFF" width="11" height="23"/>
<path fill="#6E4123" d="M88.5,88.667h-11c-1.105,0-2-0.896-2-2v-23c0-1.104,0.895-2,2-2h11c1.104,0,2,0.896,2,2v23
	C90.5,87.771,89.604,88.667,88.5,88.667z M79.5,84.667h7v-19h-7V84.667z"/>
<rect x="40.5" y="94.667" fill="#FFFFFF" width="11" height="11"/>
<path fill="#6E4123" d="M51.5,107.667h-11c-1.105,0-2-0.896-2-2v-11c0-1.104,0.895-2,2-2h11c1.104,0,2,0.896,2,2v11
	C53.5,106.771,52.604,107.667,51.5,107.667z M42.5,103.667h7v-7h-7V103.667z"/>
<rect x="16.5" y="74.667" fill="#FFFFFF" width="11" height="11"/>
<path fill="#6E4123" d="M27.5,87.667h-11c-1.105,0-2-0.896-2-2v-11c0-1.104,0.895-2,2-2h11c1.104,0,2,0.896,2,2v11
	C29.5,86.771,28.604,87.667,27.5,87.667z M18.5,83.667h7v-7h-7V83.667z"/>
<rect x="101.5" y="93.667" fill="#FFFFFF" width="11" height="21"/>
<path fill="#6E4123" d="M112.5,116.667h-11c-1.105,0-2-0.896-2-2v-21c0-1.104,0.895-2,2-2h11c1.104,0,2,0.896,2,2v21
	C114.5,115.771,113.604,116.667,112.5,116.667z M103.5,112.667h7v-17h-7V112.667z"/>
<rect x="101.5" y="74.667" fill="#FFFFFF" width="11" height="11"/>
<path fill="#6E4123" d="M112.5,87.667h-11c-1.105,0-2-0.896-2-2v-11c0-1.104,0.895-2,2-2h11c1.104,0,2,0.896,2,2v11
	C114.5,86.771,113.604,87.667,112.5,87.667z M103.5,83.667h7v-7h-7V83.667z"/>
<rect x="58.5" y="94.667" fill="#FFFFFF" width="12" height="11"/>
<path fill="#6E4123" d="M70.5,107.667h-12c-1.105,0-2-0.896-2-2v-11c0-1.104,0.895-2,2-2h12c1.104,0,2,0.896,2,2v11
	C72.5,106.771,71.604,107.667,70.5,107.667z M60.5,103.667h8v-7h-8V103.667z"/>
<rect x="77.5" y="94.667" fill="#FFFFFF" width="11" height="11"/>
<path fill="#6E4123" d="M88.5,107.667h-11c-1.105,0-2-0.896-2-2v-11c0-1.104,0.895-2,2-2h11c1.104,0,2,0.896,2,2v11
	C90.5,106.771,89.604,107.667,88.5,107.667z M79.5,103.667h7v-7h-7V103.667z"/>
<path fill="none" stroke="#6E4123" stroke-width="4" stroke-linecap="round" stroke-linejoin="round" stroke-miterlimit="10" d="
	M96.5,45.667"/>
<path fill="none" stroke="#6E4123" stroke-width="4" stroke-linejoin="round" stroke-miterlimit="10" d="M33.5,45.667"/>
<path fill="#6E4123" d="M94.5,118.667c-1.105,0-2-0.896-2-2v-50c0-1.104,0.895-2,2-2c1.104,0,2,0.896,2,2v50
	C96.5,117.771,95.604,118.667,94.5,118.667z"/>
<path fill="#6E4123" d="M34.5,118.667c-1.105,0-2-0.896-2-2v-50c0-1.104,0.895-2,2-2c1.104,0,2,0.896,2,2v50
	C36.5,117.771,35.604,118.667,34.5,118.667z"/>
<polygon fill="#FFFFFF" points="49.5,29.667 80.5,29.667 64.5,8.667 "/>
<path fill="#6E4123" d="M80.5,31.667h-31c-0.749,0-1.436-0.419-1.778-1.085c-0.343-0.666-0.285-1.468,0.151-2.077l15-21
	c0.369-0.518,0.961-0.828,1.597-0.838c0.62-0.019,1.237,0.282,1.622,0.788l16,21c0.461,0.604,0.539,1.418,0.201,2.1
	C81.955,31.236,81.261,31.667,80.5,31.667z M53.386,27.667h23.076l-11.91-15.632L53.386,27.667z"/>
<polygon fill="#F6E89A" points="65.254,32.47 69.348,40.764 78.5,42.094 71.877,48.551 73.44,57.667 65.254,53.363 57.066,57.667 
	58.631,48.551 52.008,42.094 61.16,40.764 "/>
<path fill="#6E4123" d="M73.44,59.667c-0.318,0-0.638-0.076-0.931-0.229l-7.256-3.814l-7.257,3.814
	c-0.673,0.352-1.49,0.295-2.107-0.152c-0.616-0.448-0.924-1.206-0.795-1.956l1.387-8.079l-5.87-5.724
	c-0.545-0.531-0.741-1.326-0.506-2.05c0.235-0.724,0.861-1.252,1.614-1.361l8.112-1.179l3.628-7.351
	c0.337-0.683,1.032-1.115,1.794-1.115s1.456,0.433,1.793,1.115l3.628,7.351l8.112,1.179c0.753,0.109,1.379,0.638,1.614,1.361
	c0.235,0.724,0.039,1.519-0.506,2.05l-5.87,5.724l1.386,8.079c0.128,0.75-0.181,1.509-0.796,1.956
	C74.268,59.538,73.854,59.667,73.44,59.667z M65.254,51.363c0.32,0,0.639,0.076,0.931,0.229l4.6,2.418l-0.879-5.121
	c-0.11-0.648,0.104-1.311,0.575-1.77l3.722-3.629l-5.142-0.747c-0.651-0.095-1.214-0.504-1.506-1.095l-2.3-4.66l-2.3,4.66
	c-0.292,0.591-0.854,1-1.506,1.095l-5.143,0.747l3.722,3.629c0.472,0.459,0.687,1.121,0.575,1.77l-0.879,5.121l4.6-2.418
	C64.615,51.439,64.934,51.363,65.254,51.363z"/>
<polygon fill="#F6E89A" points="84.254,42.667 86.493,47.204 91.5,47.932 87.877,51.464 88.732,56.45 84.254,54.096 79.775,56.45 
	80.631,51.464 77.008,47.932 82.015,47.204 "/>
<path fill="#6E4123" d="M88.732,58.45c-0.318,0-0.638-0.076-0.931-0.229l-3.548-1.864l-3.548,1.864
	c-0.675,0.353-1.49,0.295-2.106-0.152c-0.616-0.448-0.924-1.206-0.796-1.956l0.678-3.95l-2.869-2.797
	c-0.546-0.531-0.742-1.326-0.507-2.051c0.235-0.724,0.861-1.251,1.614-1.361l3.967-0.577l1.774-3.594
	c0.338-0.683,1.032-1.115,1.794-1.115c0.762,0,1.456,0.433,1.794,1.115l1.773,3.594l3.967,0.577c0.753,0.11,1.379,0.638,1.614,1.361
	c0.235,0.725,0.039,1.52-0.507,2.051l-2.869,2.797l0.678,3.95c0.128,0.75-0.18,1.508-0.796,1.956
	C89.56,58.321,89.147,58.45,88.732,58.45z M84.254,52.096c0.319,0,0.639,0.076,0.931,0.229l0.892,0.469l-0.171-0.993
	c-0.11-0.649,0.104-1.311,0.576-1.771l0.721-0.703l-0.997-0.145c-0.651-0.095-1.214-0.504-1.506-1.095l-0.445-0.903l-0.445,0.903
	c-0.292,0.591-0.854,1-1.506,1.095l-0.997,0.145l0.721,0.703c0.472,0.46,0.687,1.122,0.576,1.771l-0.171,0.993l0.892-0.469
	C83.615,52.173,83.935,52.096,84.254,52.096z"/>
<polygon fill="#F6E89A" points="45.254,42.667 47.493,47.204 52.5,47.932 48.877,51.464 49.732,56.45 45.254,54.096 40.775,56.45 
	41.631,51.464 38.008,47.932 43.015,47.204 "/>
<path fill="#6E4123" d="M49.732,58.45c-0.318,0-0.638-0.076-0.93-0.229l-3.548-1.864l-3.548,1.864
	c-0.673,0.354-1.489,0.295-2.106-0.152c-0.616-0.448-0.924-1.206-0.795-1.956l0.678-3.95l-2.87-2.797
	c-0.545-0.531-0.741-1.326-0.506-2.051c0.235-0.724,0.861-1.251,1.614-1.361l3.967-0.577l1.774-3.594
	c0.337-0.683,1.032-1.115,1.793-1.115s1.457,0.433,1.793,1.115l1.774,3.594l3.967,0.577c0.753,0.11,1.379,0.638,1.614,1.361
	c0.235,0.725,0.039,1.52-0.506,2.051l-2.87,2.797l0.678,3.95c0.129,0.75-0.18,1.508-0.795,1.956
	C50.56,58.321,50.147,58.45,49.732,58.45z M45.254,52.096c0.319,0,0.639,0.076,0.93,0.229l0.892,0.469l-0.17-0.993
	c-0.111-0.649,0.104-1.311,0.575-1.771l0.722-0.703l-0.997-0.145c-0.651-0.095-1.214-0.504-1.505-1.095l-0.446-0.903l-0.446,0.903
	c-0.292,0.591-0.854,1-1.505,1.095l-0.998,0.145l0.722,0.703c0.471,0.46,0.686,1.122,0.575,1.771l-0.171,0.993l0.892-0.469
	C44.615,52.173,44.935,52.096,45.254,52.096z"/>
<path fill="#6E4123" d="M120.5,118.667H8.5c-1.657,0-3-1.343-3-3v-47c-1.657,0-3-1.343-3-3v-9c0-1.657,1.343-3,3-3h25v-4h-3
	c-1.127,0-2.158-0.631-2.671-1.634c-0.513-1.004-0.421-2.209,0.239-3.123l13-18c0.564-0.78,1.469-1.243,2.432-1.243H48l14.1-18.8
	c0.557-0.742,1.425-1.186,2.353-1.2c0.922-0.008,1.81,0.401,2.39,1.126l15.099,18.874H87.5c0.926,0,1.8,0.428,2.368,1.158
	l13.818,17.768c0.517,0.538,0.833,1.269,0.833,2.074c0,1.657-1.343,3-3,3c-0.006,0-0.014,0-0.019,0h-3v4h25c1.657,0,3,1.343,3,3v9
	c0,1.657-1.343,3-3,3v47C123.5,117.324,122.157,118.667,120.5,118.667z M11.5,112.667h106v-47c0-1.657,1.343-3,3-3v-3h-25
	c-1.657,0-3-1.343-3-3v-10c0-1.612,1.272-2.929,2.868-2.997l-9.335-12.003H80.5c-0.911,0-1.773-0.414-2.343-1.126l-13.58-16.976
	L51.9,30.466c-0.566,0.756-1.456,1.2-2.4,1.2h-7.466l-8.667,12H33.5c1.657,0,3,1.343,3,3v10c0,1.657-1.343,3-3,3h-25v3
	c1.657,0,3,1.343,3,3V112.667z"/>
</svg>
