<svg xmlns="http://www.w3.org/2000/svg" width="124.145" height="122.566" viewBox="0 0 124.145 122.566">
  <g id="tech" transform="translate(-1.928 -2.717)">
    <path id="Path_1" data-name="Path 1" d="M65.769,84.917a14.569,14.569,0,0,0,16.064,6.653A14.392,14.392,0,0,0,85.7,89.964a14.589,14.589,0,0,0,5.049-5.049,14.385,14.385,0,0,0,1.607-3.871A14.547,14.547,0,0,0,85.7,64.98a14.389,14.389,0,0,0-3.871-1.607A14.541,14.541,0,0,0,65.769,84.917Z" fill="#783741"/>
    <path id="Path_2" data-name="Path 2" d="M119.58,70.982h-2.857a38.785,38.785,0,0,0-6.674-16.115l2.022-2.022a6.493,6.493,0,1,0-9.182-9.182l-2.022,2.022a38.722,38.722,0,0,0-16.111-6.669V36.154a6.493,6.493,0,0,0-11.33-4.331,9.566,9.566,0,0,1,1.224,4.707A9.706,9.706,0,0,1,67.018,46a32.638,32.638,0,0,1-2.463,5.95,9.723,9.723,0,0,1,1.076,2.291,26.223,26.223,0,0,1,6.14-2.407,26.673,26.673,0,0,1,12.985,0,26.167,26.167,0,0,1,7.04,2.922,26.49,26.49,0,0,1,12.1,29.212,26.167,26.167,0,0,1-2.922,7.04,26.533,26.533,0,0,1-9.182,9.182,26.168,26.168,0,0,1-7.04,2.922A26.449,26.449,0,0,1,54.144,66.618a9.62,9.62,0,0,1-2.987-1.271,33.262,33.262,0,0,1-5.945,2.463,9.707,9.707,0,0,1-9.47,7.629,9.605,9.605,0,0,1-4.485-1.1,6.5,6.5,0,0,0,5.686,9.632H39.8a38.667,38.667,0,0,0,6.673,16.111L44.456,102.1a6.491,6.491,0,0,0,9.178,9.182l2.022-2.022a38.782,38.782,0,0,0,16.115,6.673v2.857a6.493,6.493,0,1,0,12.985,0v-2.861a38.722,38.722,0,0,0,16.111-6.669l2.022,2.022a6.493,6.493,0,1,0,9.182-9.182l-2.022-2.022a38.721,38.721,0,0,0,6.669-16.111h2.861a6.493,6.493,0,1,0,0-12.985Z" fill="#783741"/>
    <path id="Path_3" data-name="Path 3" d="M31.148,65.746a4.591,4.591,0,1,0,9.183,0V63.723a27.383,27.383,0,0,0,11.393-4.716l1.43,1.43a4.592,4.592,0,0,0,6.493-6.493l-1.43-1.43A27.382,27.382,0,0,0,62.933,41.12h2.024a4.591,4.591,0,1,0,0-9.183h-2.02a27.425,27.425,0,0,0-4.719-11.4l1.43-1.43a4.592,4.592,0,0,0-6.493-6.493l-1.43,1.43A27.382,27.382,0,0,0,40.331,9.332V7.308a4.591,4.591,0,1,0-9.183,0v2.02a27.426,27.426,0,0,0-11.4,4.719l-1.43-1.43a4.59,4.59,0,1,0-6.49,6.493l1.43,1.43a27.386,27.386,0,0,0-4.722,11.4H6.519a4.591,4.591,0,1,0,0,9.183H8.542a27.345,27.345,0,0,0,4.719,11.393l-1.43,1.43a4.59,4.59,0,1,0,6.49,6.493l1.43-1.43a27.426,27.426,0,0,0,11.4,4.719ZM28.134,49.29A14.861,14.861,0,0,1,39.387,22.122a14.7,14.7,0,0,1,3.955,1.641,14.883,14.883,0,0,1,6.8,16.412A14.7,14.7,0,0,1,48.5,44.131a14.906,14.906,0,0,1-5.159,5.159,14.834,14.834,0,0,1-15.208,0Z" fill="#f5e799"/>
  </g>
</svg>
